# xmcd
#
# Track frame offsets:
#	150
#	12899
#	25906
#	41749
#	60994
#	78765
#	94329
#	113733
#	131659
#	150641
#	165712
#
# Disc length: 2442 seconds
#
# Revision: 1
# Processed by: cddbd v1.5.2PL0 Copyright (c) Steve Scherf et al.
# Submitted via: audiograbber 1.83.01
#
DISCID=7e09880b
DTITLE=Travis Collins - Wired
DYEAR=2015
DGENRE=Country
TTITLE0=Trucked Up
TTITLE1=Thank God I'm A Country Boy
TTITLE2=Curves
TTITLE3=Love Is A Lesson (featuring Adam Brand)
TTITLE4=When In Rome
TTITLE5=Million Dollar View
TTITLE6=God Speaks
TTITLE7=Sing 'Cos I Love To
TTITLE8=Just The Way We Do It
TTITLE9=Boots On
TTITLE10=Lost And Uninspired
EXTD=
EXTT0=
EXTT1=
EXTT2=
EXTT3=
EXTT4=
EXTT5=
EXTT6=
EXTT7=
EXTT8=
EXTT9=
EXTT10=
PLAYORDER=
